<?xml version="1.0" standalone="no"?>
<!DOCTYPE svg PUBLIC "-//W3C//DTD SVG 20010904//EN"
 "http://www.w3.org/TR/2001/REC-SVG-20010904/DTD/svg10.dtd">
<svg version="1.0" xmlns="http://www.w3.org/2000/svg"
 width="1600.000000pt" height="1600.000000pt" viewBox="0 0 1600.000000 1600.000000"
 preserveAspectRatio="xMidYMid meet">
<metadata>
Created by potrace 1.11, written by Peter Selinger 2001-2013
</metadata>
<g transform="translate(0.000000,1600.000000) scale(0.100000,-0.100000)"
fill="#000000" stroke="none">
<path d="M9180 14735 c-249 -34 -575 -140 -849 -275 -57 -28 -106 -49 -108
-46 -9 9 58 135 98 186 29 37 36 50 23 47 -11 -3 -39 -11 -64 -17 -203 -50
-610 -242 -971 -461 -56 -33 -102 -59 -104 -57 -2 2 12 48 31 102 18 55 33
101 31 102 -1 1 -52 -31 -112 -72 -146 -100 -331 -215 -491 -307 -145 -82
-157 -90 -289 -191 -192 -148 -401 -334 -641 -573 -507 -502 -923 -1040 -1144
-1477 -98 -195 -119 -250 -175 -456 -127 -472 -126 -1096 3 -1712 l29 -137
-75 -36 c-146 -73 -250 -218 -291 -410 -44 -198 -50 -490 -15 -662 16 -78 61
-210 117 -338 103 -238 151 -354 201 -482 104 -265 191 -386 387 -540 117 -91
208 -141 316 -175 l73 -23 0 -1373 0 -1374 69 -92 c38 -50 130 -172 206 -271
75 -99 188 -247 251 -330 62 -82 162 -213 221 -290 58 -77 163 -214 232 -305
69 -91 161 -212 205 -270 44 -58 121 -159 171 -225 50 -66 140 -183 198 -260
59 -77 160 -210 225 -295 65 -85 160 -210 211 -278 l93 -122 929 0 929 0 0
1078 0 1078 138 38 c146 41 375 121 449 157 115 55 199 146 287 308 31 56 56
104 56 106 0 2 11 28 24 57 13 29 52 121 86 203 91 220 189 429 270 578 188
345 320 655 468 1102 33 99 83 230 110 290 97 214 209 536 251 715 46 203 57
489 26 694 -9 59 -14 110 -12 112 2 2 31 11 63 19 93 24 213 88 271 145 76 76
124 176 198 418 37 123 102 432 141 670 14 86 27 164 30 173 5 20 -35 38 -216
99 -135 45 -292 85 -408 102 -65 10 -75 14 -84 37 -21 50 -22 416 -3 592 43
395 -19 907 -177 1443 -36 123 -42 159 -49 286 -27 484 -162 841 -415 1098
l-81 83 50 45 c84 75 181 125 290 149 l28 6 -37 52 c-99 138 -191 236 -304
326 -173 137 -299 192 -476 209 l-74 7 37 65 c65 111 211 252 318 308 l40 20
-60 27 c-129 58 -308 110 -465 135 -188 29 -471 21 -665 -19 -49 -11 -91 -18
-93 -16 -2 2 8 25 21 52 40 79 136 200 267 336 l122 127 -124 -1 c-67 -1 -166
-7 -218 -14z m-1239 -2019 c370 -60 547 -132 929 -382 212 -138 334 -196 499
-240 182 -47 408 -28 601 53 103 43 251 132 346 207 l87 70 24 -30 c333 -404
610 -950 711 -1405 81 -359 114 -862 72 -1090 -26 -147 -42 -339 -34 -426 l7
-73 -29 0 c-163 3 -295 20 -376 48 -76 27 -148 43 -298 68 l-35 6 45 24 c25
12 43 24 40 24 -46 11 -303 25 -341 19 -84 -13 -157 -57 -247 -148 l-83 -83
-172 5 c-132 4 -198 11 -282 29 -110 25 -149 36 -409 120 l-140 45 -31 58
c-18 32 -54 79 -81 104 l-49 46 -3 -42 c-2 -24 -6 -43 -9 -43 -3 0 -35 22 -72
48 -114 83 -232 147 -331 182 -107 38 -277 38 -635 -1 -137 -15 -139 -16 -75
-50 30 -16 46 -27 35 -25 -11 3 -56 15 -100 26 -101 26 -271 37 -345 21 -30
-6 -86 -27 -125 -46 -60 -28 -88 -35 -190 -45 -111 -10 -307 -42 -645 -104
-218 -40 -763 -146 -784 -153 -17 -5 -18 -1 -12 48 9 70 49 187 93 270 40 77
91 133 171 187 76 52 138 121 170 190 24 51 27 71 30 187 2 85 -2 163 -12 225
-9 52 -29 178 -46 280 -40 249 -56 481 -41 608 30 252 145 477 351 683 284
284 690 471 1148 529 37 5 168 7 292 5 181 -3 256 -8 381 -29z m-386 -3176
c109 -13 361 -60 505 -95 193 -47 276 -57 405 -52 121 5 177 17 272 55 l52 21
50 -27 c76 -41 133 -93 166 -153 26 -47 30 -64 29 -124 -4 -234 -154 -672
-302 -880 -144 -203 -256 -260 -537 -272 -270 -11 -704 46 -1060 138 -237 62
-337 165 -388 399 -35 158 -27 605 14 820 l11 55 126 45 c112 39 140 45 230
48 104 4 293 -16 397 -43 66 -17 70 -10 10 16 -27 12 -63 30 -79 40 -37 23
-31 23 99 9z m-1115 -109 c0 -5 -15 -20 -32 -32 -18 -13 -38 -28 -44 -34 -6
-5 -43 -35 -82 -65 -39 -30 -67 -56 -63 -58 4 -1 73 20 154 48 81 27 154 50
162 50 38 0 69 -202 95 -625 15 -255 40 -352 118 -458 90 -124 244 -189 597
-251 310 -55 758 -81 1005 -57 368 36 481 155 742 785 125 303 199 434 263
466 18 9 57 14 95 14 111 -1 218 -68 256 -161 8 -18 23 -72 34 -120 11 -49 33
-124 48 -168 l27 -80 6 115 c8 143 23 218 60 295 30 64 74 123 84 113 4 -3 -1
-20 -10 -37 -8 -17 -14 -31 -12 -31 3 0 39 16 81 35 42 19 132 54 199 77 l122
43 230 -3 c127 -2 272 0 323 4 91 6 93 6 76 25 -17 18 -16 19 27 18 24 0 76
-6 114 -12 l70 -12 9 -65 c19 -129 -5 -228 -114 -490 -58 -137 -74 -232 -74
-440 -1 -205 7 -255 60 -392 19 -48 34 -92 34 -97 0 -15 -40 -22 -160 -28
-257 -12 -777 85 -869 163 -38 32 -83 123 -115 234 -24 82 -25 84 -25 39 -1
-67 26 -238 50 -316 28 -89 46 -123 147 -278 182 -278 196 -311 196 -485 1
-113 -2 -131 -25 -187 -46 -110 -114 -170 -293 -260 -59 -30 -106 -57 -103
-59 3 -3 13 -1 24 5 10 5 58 26 106 45 244 96 337 223 337 458 0 108 -16 179
-58 263 -28 57 -124 203 -187 285 -54 71 -120 183 -140 239 -17 50 -19 75 -3
46 46 -84 200 -159 413 -204 166 -34 359 -53 552 -54 l182 0 10 -51 c30 -152
34 -196 34 -371 0 -260 -26 -409 -144 -807 -60 -206 -109 -350 -139 -408 -31
-60 -199 -309 -210 -310 -3 0 -5 82 -5 182 0 213 -5 244 -45 285 -30 31 -71
48 -260 108 -47 15 -160 65 -251 111 -91 46 -188 91 -215 99 -71 21 -155 18
-269 -10 -159 -40 -254 -31 -455 39 -160 56 -200 51 -663 -90 -27 -8 -103 -27
-170 -42 -120 -26 -128 -27 -487 -27 -390 0 -404 -2 -505 -52 -127 -65 -197
-159 -237 -320 -7 -29 -12 -141 -13 -283 -1 -181 -5 -250 -17 -301 -67 -265
-167 -315 -253 -127 -23 50 -27 80 -40 260 -27 386 -44 425 -340 742 -221 238
-276 300 -374 421 -334 410 -505 776 -625 1330 -76 352 -114 787 -96 1100 5
86 10 158 12 160 11 12 226 48 288 49 86 1 138 -14 183 -54 77 -67 140 -76
239 -34 175 73 358 122 358 95z m4970 -169 c79 -26 170 -73 190 -97 14 -17 13
-17 -151 -39 -180 -25 -169 -28 -169 48 0 35 -3 78 -6 95 -6 31 -6 31 27 25
19 -4 68 -18 109 -32z m-6678 3 c102 -21 209 -75 252 -129 45 -54 78 -142 105
-276 33 -169 43 -322 71 -1090 13 -348 25 -556 46 -763 9 -87 14 -160 10 -164
-10 -10 -156 36 -216 68 -123 65 -315 234 -374 327 -52 83 -94 168 -129 262
-44 118 -152 377 -252 605 -64 146 -89 320 -80 540 17 359 91 524 276 610 65
30 175 34 291 10z m6578 -305 c11 -6 32 -32 47 -58 15 -26 32 -50 38 -54 19
-14 83 -8 181 18 55 14 109 28 122 31 l22 5 0 -153 c0 -85 -5 -188 -10 -229
-11 -80 -47 -238 -60 -255 -4 -5 -15 -30 -24 -55 -27 -69 -100 -173 -162 -229
-31 -28 -88 -66 -127 -85 -119 -56 -110 -59 -155 63 -55 148 -66 206 -66 366
0 158 14 254 54 370 105 303 97 288 140 265z m-6000 -2685 c69 -352 183 -690
306 -907 151 -265 261 -394 755 -883 459 -454 709 -670 979 -846 332 -218 563
-301 920 -330 124 -10 171 -9 322 5 97 9 222 25 278 35 73 13 103 15 106 7 2
-6 3 -459 2 -1006 l-3 -995 -834 0 -834 0 -47 60 c-25 33 -102 134 -171 225
-206 272 -492 646 -614 805 -33 44 -118 154 -187 245 -69 91 -193 255 -277
365 -84 110 -162 213 -174 229 -12 16 -45 59 -72 95 -63 83 -273 358 -393 517
l-92 121 0 1188 c0 654 2 1186 4 1184 3 -2 14 -54 26 -114z m4039 -294 c55
-19 71 -21 107 -12 64 16 147 13 301 -10 87 -13 216 -24 348 -28 194 -6 213
-8 246 -28 118 -74 136 -317 44 -605 -142 -442 -464 -880 -818 -1111 -119 -79
-298 -154 -417 -176 -221 -41 -488 -10 -713 83 -417 173 -800 571 -962 1001
-34 91 -65 252 -65 339 0 86 30 217 66 289 56 109 157 205 247 232 111 34 163
37 732 45 755 9 803 8 884 -19z"/>
<path d="M8356 6960 c34 -129 184 -252 302 -249 l37 1 -45 12 c-106 30 -212
112 -271 210 -16 28 -27 40 -23 26z"/>
<path d="M8902 6965 c-72 -16 -118 -40 -140 -73 -15 -23 -15 -23 12 -11 21 10
43 9 119 -6 122 -24 174 -16 229 33 36 33 47 37 92 36 58 -1 171 -44 171 -66
0 -8 -16 -15 -40 -18 -30 -4 -35 -7 -22 -13 49 -20 113 4 101 38 -10 25 -69
54 -149 75 -93 24 -275 26 -373 5z"/>
<path d="M9988 6889 c-54 -27 -98 -52 -98 -55 0 -4 27 -4 60 -2 52 4 65 9 96
39 37 36 60 69 47 68 -4 0 -52 -22 -105 -50z"/>
<path d="M9869 6633 c-13 -16 -12 -17 4 -4 9 7 17 15 17 17 0 8 -8 3 -21 -13z"/>
<path d="M4380 8960 c-52 -25 -86 -54 -106 -92 -22 -43 -16 -46 11 -6 33 49
113 88 181 88 60 0 72 -10 45 -34 -42 -38 -64 -115 -72 -247 -4 -75 -15 -157
-28 -202 -31 -112 -42 -232 -31 -331 15 -130 28 -144 22 -25 -5 115 13 239 48
349 15 43 24 108 30 195 9 148 24 191 91 264 22 24 38 45 35 48 -3 3 -45 7
-93 10 -74 3 -95 1 -133 -17z"/>
<path d="M4899 8531 c-11 -27 -49 -65 -126 -129 -60 -50 -125 -110 -145 -134
-43 -52 -83 -131 -91 -178 -5 -30 -1 -25 28 30 43 80 86 128 195 216 47 37
106 88 132 112 l46 44 25 -38 c49 -79 60 -110 65 -184 4 -54 8 -68 13 -50 28
97 -24 257 -107 332 -18 16 -20 15 -35 -21z"/>
<path d="M8638 5073 c9 -33 16 -99 16 -150 1 -57 5 -89 11 -86 6 3 25 17 44
31 l34 25 -6 -79 c-3 -43 -13 -103 -22 -132 -9 -30 -14 -56 -12 -58 6 -7 123
34 182 64 28 13 71 40 96 58 26 19 50 34 54 34 10 0 -5 -108 -22 -158 -8 -24
-12 -46 -10 -48 6 -7 123 34 180 63 26 13 66 40 89 61 31 28 39 32 35 17 -3
-11 -9 -42 -13 -68 l-7 -49 30 15 c68 36 166 162 206 267 3 8 6 -20 6 -63 l1
-78 29 16 c89 45 171 174 171 266 0 38 -2 41 -22 36 -13 -3 -104 -11 -203 -18
-203 -13 -449 -7 -600 16 -111 17 -252 53 -261 66 -3 5 -9 9 -14 9 -4 0 -1
-26 8 -57z"/>
</g>
</svg>
